0
SECTION
2
HEADER
9
$INSUNITS
70
4
9
$ACADVER
1
AC1014
9
$HANDSEED
5
FFFF
0
ENDSEC
0
SECTION
2
TABLES
0
TABLE
2
VPORT
5
8
100
AcDbSymbolTable
0
ENDTAB
0
TABLE
2
LTYPE
5
5
100
AcDbSymbolTable
0
LTYPE
5
14
100
AcDbSymbolTableRecord
100
AcDbLinetypeTableRecord
2
BYBLOCK
70
0
0
LTYPE
5
15
100
AcDbSymbolTableRecord
100
AcDbLinetypeTableRecord
2
BYLAYER
70
0
0
ENDTAB
0
TABLE
2
LAYER
5
2
100
AcDbSymbolTable
70
2
0
LAYER
5
50
100
AcDbSymbolTableRecord
100
AcDbLayerTableRecord
2
0
70
0
6
CONTINUOUS
0
ENDTAB
0
TABLE
2
STYLE
5
3
100
AcDbSymbolTable
70
1
0
STYLE
5
11
100
AcDbSymbolTableRecord
100
AcDbTextStyleTableRecord
2
STANDARD
70
0
0
ENDTAB
0
TABLE
2
VIEW
5
6
100
AcDbSymbolTable
70
0
0
ENDTAB
0
TABLE
2
UCS
5
7
100
AcDbSymbolTable
70
0
0
ENDTAB
0
TABLE
2
APPID
5
9
100
AcDbSymbolTable
70
2
0
APPID
5
12
100
AcDbSymbolTableRecord
100
AcDbRegAppTableRecord
2
ACAD
70
0
0
ENDTAB
0
TABLE
2
DIMSTYLE
5
A
100
AcDbSymbolTable
70
1
0
ENDTAB
0
TABLE
2
BLOCK_RECORD
5
1
100
AcDbSymbolTable
70
1
0
BLOCK_RECORD
5
1F
100
AcDbSymbolTableRecord
100
AcDbBlockTableRecord
2
*MODEL_SPACE
0
BLOCK_RECORD
5
1B
100
AcDbSymbolTableRecord
100
AcDbBlockTableRecord
2
*PAPER_SPACE
0
ENDTAB
0
ENDSEC
0
SECTION
2
BLOCKS
0
BLOCK
5
20
100
AcDbEntity
100
AcDbBlockBegin
2
*MODEL_SPACE
0
ENDBLK
5
21
100
AcDbEntity
100
AcDbBlockEnd
0
BLOCK
5
1C
100
AcDbEntity
100
AcDbBlockBegin
2
*PAPER_SPACE
0
ENDBLK
5
1D
100
AcDbEntity
100
AcDbBlockEnd
0
ENDSEC
0
SECTION
2
ENTITIES
0
CIRCLE
5
100
100
AcDbEntity
8
0
100
AcDbCircle
10
-133
20
28
30
0
40
1.625
0
CIRCLE
5
101
100
AcDbEntity
8
0
100
AcDbCircle
10
-133
20
-28
30
0
40
1.625
0
CIRCLE
5
102
100
AcDbEntity
8
0
100
AcDbCircle
10
0
20
-28
30
0
40
1.625
0
CIRCLE
5
103
100
AcDbEntity
8
0
100
AcDbCircle
10
0
20
28
30
0
40
1.625
0
CIRCLE
5
104
100
AcDbEntity
8
0
100
AcDbCircle
10
133
20
28
30
0
40
1.625
0
CIRCLE
5
105
100
AcDbEntity
8
0
100
AcDbCircle
10
133
20
-28
30
0
40
1.625
0
LWPOLYLINE
5
106
100
AcDbEntity
8
0
100
AcDbPolyline
90
4
70
1
43
0.0
10
-62.499999999999986
20
7.4999999999999982
10
-87.499999999999986
20
7.5000000000000071
42
0.99999999999999989
10
-87.499999999999986
20
-7.4999999999999929
10
-62.499999999999986
20
-7.4999999999999929
42
0.99999999999999989
0
LWPOLYLINE
5
107
100
AcDbEntity
8
0
100
AcDbPolyline
90
8
70
1
43
0.0
10
134.5
20
34.500000000000014
42
-0.4142135623730932
10
139.5
20
29.5
10
139.5
20
-29.5
42
-0.4142135623730932
10
134.5
20
-34.500000000000007
10
-134.5
20
-34.500000000000014
42
-0.41421356237309342
10
-139.5
20
-29.5
10
-139.5
20
29.5
42
-0.4142135623730932
10
-134.5
20
34.500000000000007
0
CIRCLE
5
108
100
AcDbEntity
8
0
100
AcDbCircle
10
-120
20
0
30
0
40
8.0000000000000071
0
LWPOLYLINE
5
109
100
AcDbEntity
8
0
100
AcDbPolyline
90
6
70
1
43
0.0
10
-41.999999868404572
20
1.3159543899021742e-07
10
-30.999999999999996
20
-11.000000000000004
10
-8.9999999999999947
20
-11.000000000000004
10
1.9999998684045717
20
-1.3159543454932532e-07
10
-8.9999999999999947
20
10.999999999999998
10
-30.999999999999996
20
11
0
LINE
5
110
100
AcDbEntity
8
0
100
AcDbLine
10
-139.5
20
29.5
30
0
11
-139.5
21
-29.5
31
0
0
LINE
5
111
100
AcDbEntity
8
0
100
AcDbLine
10
-134.5
20
-34.500000000000014
30
0
11
134.5
21
-34.500000000000007
31
0
0
LINE
5
112
100
AcDbEntity
8
0
100
AcDbLine
10
139.5
20
-29.5
30
0
11
139.5
21
29.500000000000007
31
0
0
LINE
5
113
100
AcDbEntity
8
0
100
AcDbLine
10
134.5
20
34.500000000000014
30
0
11
-134.5
21
34.500000000000007
31
0
0
ARC
5
114
100
AcDbEntity
8
0
100
AcDbCircle
10
-134.50000000000003
20
29.500000000000011
30
0
40
4.9999999999999956
100
AcDbArc
50
89.999999999999673
51
180
0
ARC
5
115
100
AcDbEntity
8
0
100
AcDbCircle
10
-134.5
20
-29.5
30
0
40
5.0000000000000178
100
AcDbArc
50
180
51
270
0
ARC
5
116
100
AcDbEntity
8
0
100
AcDbCircle
10
134.50000000000003
20
-29.500000000000011
30
0
40
4.9999999999999956
100
AcDbArc
50
-90.000000000000313
51
0
0
ARC
5
117
100
AcDbEntity
8
0
100
AcDbCircle
10
134.5
20
29.499999999999989
30
0
40
5.0000000000000178
100
AcDbArc
50
0
51
90
0
CIRCLE
5
118
100
AcDbEntity
8
0
100
AcDbCircle
10
-120
20
0
30
0
40
8.0000000000000053
0
LINE
5
119
100
AcDbEntity
8
0
100
AcDbLine
10
-86.499999999999986
20
7.5000000000000071
30
0
11
-63.499999999999979
21
7.5000000000000071
31
0
0
LINE
5
120
100
AcDbEntity
8
0
100
AcDbLine
10
-63.499999999999979
20
7.5000000000000071
30
0
11
-63.499999999999979
21
-7.4999999999999929
31
0
0
LINE
5
121
100
AcDbEntity
8
0
100
AcDbLine
10
-63.499999999999979
20
-7.4999999999999929
30
0
11
-86.499999999999986
21
-7.4999999999999929
31
0
0
LINE
5
122
100
AcDbEntity
8
0
100
AcDbLine
10
-86.499999999999986
20
-7.4999999999999929
30
0
11
-86.499999999999986
21
7.5000000000000071
31
0
0
LINE
5
123
100
AcDbEntity
8
0
100
AcDbLine
10
-30.999999999999996
20
11
30
0
11
-8.9999999999999947
21
11
31
0
0
LINE
5
124
100
AcDbEntity
8
0
100
AcDbLine
10
-8.9999999999999947
20
11
30
0
11
-8.9999999999999947
21
-11.000000000000004
31
0
0
LINE
5
125
100
AcDbEntity
8
0
100
AcDbLine
10
-8.9999999999999947
20
-11.000000000000004
30
0
11
-30.999999999999996
21
-11
31
0
0
LINE
5
126
100
AcDbEntity
8
0
100
AcDbLine
10
-30.999999999999996
20
-11
30
0
11
-30.999999999999996
21
11
31
0
0
LINE
5
127
100
AcDbEntity
8
0
100
AcDbLine
10
-86.499999999999986
20
7.5000000000000071
30
0
11
-87.499999999999986
21
7.5000000000000071
31
0
0
LINE
5
128
100
AcDbEntity
8
0
100
AcDbLine
10
-86.499999999999986
20
-7.4999999999999929
30
0
11
-87.499999999999986
21
-7.4999999999999929
31
0
0
LINE
5
129
100
AcDbEntity
8
0
100
AcDbLine
10
-63.499999999999979
20
-7.4999999999999929
30
0
11
-62.499999999999986
21
-7.4999999999999929
31
0
0
LINE
5
130
100
AcDbEntity
8
0
100
AcDbLine
10
-63.499999999999979
20
7.5000000000000071
30
0
11
-62.499999999999986
21
7.4999999999999982
31
0
0
ARC
5
131
100
AcDbEntity
8
0
100
AcDbCircle
10
-87.499999999999986
20
6.6613381477509392e-15
30
0
40
7.5
100
AcDbArc
50
90
51
270
0
ARC
5
132
100
AcDbEntity
8
0
100
AcDbCircle
10
-62.499999999999986
20
2.7755575615628914e-15
30
0
40
7.4999999999999956
100
AcDbArc
50
-90
51
90
0
LINE
5
133
100
AcDbEntity
8
0
100
AcDbLine
10
-30.999999999999996
20
11
30
0
11
-41.999999868404572
21
1.3159543899021742e-07
31
0
0
LINE
5
134
100
AcDbEntity
8
0
100
AcDbLine
10
-41.999999868404572
20
1.3159543899021742e-07
30
0
11
-30.999999999999996
21
-11
31
0
0
LINE
5
135
100
AcDbEntity
8
0
100
AcDbLine
10
-8.9999999999999947
20
-11.000000000000004
30
0
11
1.9999998684045717
21
-1.3159543454932532e-07
31
0
0
LINE
5
136
100
AcDbEntity
8
0
100
AcDbLine
10
1.9999998684045717
20
-1.3159543454932532e-07
30
0
11
-8.9999999999999947
21
11
31
0
0
LINE
5
137
100
AcDbEntity
8
0
100
AcDbLine
10
-8.9999999999999947
20
11
30
0
11
-8.9999999999999947
21
-11.000000000000004
31
0
0
LINE
5
138
100
AcDbEntity
8
0
100
AcDbLine
10
-30.999999999999996
20
11
30
0
11
-30.999999999999996
21
-11
31
0
0
CIRCLE
5
139
100
AcDbEntity
8
0
100
AcDbCircle
10
-133
20
28
30
0
40
1.6249999999999987
0
CIRCLE
5
140
100
AcDbEntity
8
0
100
AcDbCircle
10
-133
20
-28
30
0
40
1.6249999999999956
0
CIRCLE
5
141
100
AcDbEntity
8
0
100
AcDbCircle
10
0
20
-28
30
0
40
1.6249999999999991
0
CIRCLE
5
142
100
AcDbEntity
8
0
100
AcDbCircle
10
0
20
28
30
0
40
1.6250000000000009
0
CIRCLE
5
143
100
AcDbEntity
8
0
100
AcDbCircle
10
133
20
28
30
0
40
1.6249999999999998
0
CIRCLE
5
144
100
AcDbEntity
8
0
100
AcDbCircle
10
133
20
-28
30
0
40
1.6250000000000051
0
ENDSEC
0
SECTION
2
OBJECTS
0
DICTIONARY
5
C
100
AcDbDictionary
3
ACAD_GROUP
350
D
3
ACAD_MLINESTYLE
350
17
0
DICTIONARY
5
D
100
AcDbDictionary
0
DICTIONARY
5
1A
330
C
100
AcDbDictionary
0
DICTIONARY
5
17
100
AcDbDictionary
0
ENDSEC
0
EOF
