0
SECTION
2
HEADER
9
$INSUNITS
70
4
9
$ACADVER
1
AC1014
9
$HANDSEED
5
FFFF
0
ENDSEC
0
SECTION
2
TABLES
0
TABLE
2
VPORT
5
8
100
AcDbSymbolTable
0
ENDTAB
0
TABLE
2
LTYPE
5
5
100
AcDbSymbolTable
0
LTYPE
5
14
100
AcDbSymbolTableRecord
100
AcDbLinetypeTableRecord
2
BYBLOCK
70
0
0
LTYPE
5
15
100
AcDbSymbolTableRecord
100
AcDbLinetypeTableRecord
2
BYLAYER
70
0
0
ENDTAB
0
TABLE
2
LAYER
5
2
100
AcDbSymbolTable
70
2
0
LAYER
5
50
100
AcDbSymbolTableRecord
100
AcDbLayerTableRecord
2
0
70
0
6
CONTINUOUS
0
ENDTAB
0
TABLE
2
STYLE
5
3
100
AcDbSymbolTable
70
1
0
STYLE
5
11
100
AcDbSymbolTableRecord
100
AcDbTextStyleTableRecord
2
STANDARD
70
0
0
ENDTAB
0
TABLE
2
VIEW
5
6
100
AcDbSymbolTable
70
0
0
ENDTAB
0
TABLE
2
UCS
5
7
100
AcDbSymbolTable
70
0
0
ENDTAB
0
TABLE
2
APPID
5
9
100
AcDbSymbolTable
70
2
0
APPID
5
12
100
AcDbSymbolTableRecord
100
AcDbRegAppTableRecord
2
ACAD
70
0
0
ENDTAB
0
TABLE
2
DIMSTYLE
5
A
100
AcDbSymbolTable
70
1
0
ENDTAB
0
TABLE
2
BLOCK_RECORD
5
1
100
AcDbSymbolTable
70
1
0
BLOCK_RECORD
5
1F
100
AcDbSymbolTableRecord
100
AcDbBlockTableRecord
2
*MODEL_SPACE
0
BLOCK_RECORD
5
1B
100
AcDbSymbolTableRecord
100
AcDbBlockTableRecord
2
*PAPER_SPACE
0
ENDTAB
0
ENDSEC
0
SECTION
2
BLOCKS
0
BLOCK
5
20
100
AcDbEntity
100
AcDbBlockBegin
2
*MODEL_SPACE
0
ENDBLK
5
21
100
AcDbEntity
100
AcDbBlockEnd
0
BLOCK
5
1C
100
AcDbEntity
100
AcDbBlockBegin
2
*PAPER_SPACE
0
ENDBLK
5
1D
100
AcDbEntity
100
AcDbBlockEnd
0
ENDSEC
0
SECTION
2
ENTITIES
0
LWPOLYLINE
5
100
100
AcDbEntity
8
0
100
AcDbPolyline
90
2
70
1
43
0.0
10
125.88717948717949
20
-48.88029715997525
42
-12.234452099780235
10
125.88717948717951
20
-46.119702840024779
42
-0.66132173512325354
0
LWPOLYLINE
5
101
100
AcDbEntity
8
0
100
AcDbPolyline
90
4
70
1
43
0.0
10
65.000000000000043
20
-44.508480078414763
10
65.000000000000028
20
-50.150618868204262
42
0.69550732517034808
10
80.000000000000057
20
-50.075670479766117
10
80
20
-44.58342846685288
42
0.6955073251703453
0
LWPOLYLINE
5
102
100
AcDbEntity
8
0
100
AcDbPolyline
90
2
70
1
43
0.0
10
-54.112820512820505
20
-48.880297159975242
42
-12.234452099780235
10
-54.112820512820505
20
-46.1197028400248
42
-0.66132173512325543
0
LWPOLYLINE
5
103
100
AcDbEntity
8
0
100
AcDbPolyline
90
2
70
1
43
0.0
10
-109.11282051282051
20
-48.88029715997525
42
-12.234452099780235
10
-109.11282051282049
20
-46.119702840024779
42
-0.66132173512325354
0
LWPOLYLINE
5
104
100
AcDbEntity
8
0
100
AcDbPolyline
90
4
70
1
43
0.0
10
-69.999999999999986
20
-19.716117818584991
42
-0.69548237581133143
10
-54.999999999999993
20
-19.716117818584987
10
-54.999999999999993
20
-25.283882181415031
42
-0.69548237581133043
10
-69.999999999999986
20
-25.283882181415031
0
LWPOLYLINE
5
105
100
AcDbEntity
8
0
100
AcDbPolyline
90
4
70
1
43
0.0
10
-42.499999999999993
20
-19.716117818584987
10
-42.499999999999993
20
-25.283882181415031
42
0.69548237581133043
10
-27.499999999999993
20
-25.283882181415031
10
-27.499999999999993
20
-19.716117818584987
42
0.69548237581133121
0
LWPOLYLINE
5
106
100
AcDbEntity
8
0
100
AcDbPolyline
90
4
70
1
43
0.0
10
87.500000000000028
20
-14.716117818584992
42
-0.69548237581133154
10
102.50000000000003
20
-14.716117818584987
10
102.50000000000003
20
-20.283882181415031
42
-0.69548237581133043
10
87.500000000000028
20
-20.283882181415031
0
LWPOLYLINE
5
107
100
AcDbEntity
8
0
100
AcDbPolyline
90
4
70
1
43
0.0
10
87.500000000000028
20
-44.716117818584998
42
-0.69548237581133199
10
102.50000000000003
20
-44.716117818584991
10
102.50000000000003
20
-50.283882181415024
42
-0.69548237581133043
10
87.500000000000028
20
-50.283882181415024
0
LWPOLYLINE
5
108
100
AcDbEntity
8
0
100
AcDbPolyline
90
4
70
1
43
0.0
10
-97.5
20
-19.716117818584987
10
-97.5
20
-25.283882181415031
42
0.69548237581133043
10
-82.5
20
-25.283882181415031
10
-82.5
20
-19.716117818584987
42
0.69548237581133121
0
LWPOLYLINE
5
109
100
AcDbEntity
8
0
100
AcDbPolyline
90
4
70
1
43
0.0
10
-18.749999999999964
20
-54.500000000000014
10
56.250000000000036
20
-54.500000000000014
10
56.250000000000036
20
-7.5000000000000089
10
-18.749999999999964
20
-7.5000000000000089
0
LWPOLYLINE
5
110
100
AcDbEntity
8
0
100
AcDbPolyline
90
4
70
1
43
0.0
10
-110
20
-25.283882181415031
10
-110
20
-19.716117818584987
42
0.69548237581132999
10
-125
20
-19.716117818584987
10
-125
20
-25.283882181415031
42
0.69548237581133154
0
LWPOLYLINE
5
111
100
AcDbEntity
8
0
100
AcDbPolyline
90
2
70
1
43
0.0
10
-81.612820512820505
20
-48.88029715997525
42
-12.234452099780235
10
-81.612820512820491
20
-46.119702840024779
42
-0.66132173512325354
0
LWPOLYLINE
5
112
100
AcDbEntity
8
0
100
AcDbPolyline
90
2
70
1
43
0.0
10
-26.612820512820512
20
-48.8802971599752
42
-12.234452099780402
10
-26.612820512820509
20
-46.119702840024821
42
-0.66132173512325398
0
LWPOLYLINE
5
113
100
AcDbEntity
8
0
100
AcDbPolyline
90
4
70
1
43
0.0
10
125.00000000000003
20
-20.283882181415027
42
-0.69548237581133177
10
110.00000000000003
20
-20.283882181415031
10
110.00000000000003
20
-14.716117818584989
42
-0.69548237581133021
10
125.00000000000003
20
-14.716117818584987
0
LWPOLYLINE
5
114
100
AcDbEntity
8
0
100
AcDbPolyline
90
8
70
1
43
0.0
10
-114.80000000000001
20
29.499999999999993
10
-115.80000000000001
20
29.499999999999993
10
-115.80000000000001
20
54.499999999999993
10
-128.5
20
54.499999999999993
10
-128.5
20
29.499999999999993
10
-129.50000000000003
20
29.499999999999993
10
-129.50000000000003
20
28.499999999999993
10
-114.80000000000001
20
28.499999999999993
0
LWPOLYLINE
5
115
100
AcDbEntity
8
0
100
AcDbPolyline
90
8
70
1
43
0.0
10
-25.600000000000016
20
29.499999999999993
10
-26.600000000000009
20
29.499999999999993
10
-26.600000000000009
20
54.499999999999993
10
-39.300000000000004
20
54.499999999999993
10
-39.300000000000004
20
29.499999999999993
10
-40.300000000000018
20
29.499999999999993
10
-40.300000000000018
20
28.499999999999993
10
-25.600000000000016
20
28.499999999999993
0
LWPOLYLINE
5
116
100
AcDbEntity
8
0
100
AcDbPolyline
90
8
70
1
43
0.0
10
63.599999999999987
20
29.499999999999993
10
62.599999999999987
20
29.499999999999993
10
62.599999999999987
20
54.499999999999993
10
49.899999999999991
20
54.499999999999993
10
49.899999999999991
20
29.499999999999993
10
48.899999999999977
20
29.499999999999993
10
48.899999999999977
20
28.499999999999993
10
63.599999999999987
20
28.499999999999993
0
LWPOLYLINE
5
117
100
AcDbEntity
8
0
100
AcDbPolyline
90
8
70
1
43
0.0
10
-14.450000000000003
20
-0.50000000000000711
10
-15.450000000000017
20
-0.50000000000000711
10
-15.450000000000017
20
24.499999999999993
10
-28.150000000000006
20
24.499999999999993
10
-28.150000000000006
20
-0.50000000000000711
10
-29.15000000000002
20
-0.50000000000000711
10
-29.15000000000002
20
-1.500000000000008
10
-14.450000000000003
20
-1.500000000000008
0
LWPOLYLINE
5
118
100
AcDbEntity
8
0
100
AcDbPolyline
90
8
70
1
43
0.0
10
-103.65000000000001
20
-0.50000000000000711
10
-104.65000000000002
20
-0.50000000000000711
10
-104.65000000000002
20
24.499999999999993
10
-117.35000000000001
20
24.499999999999993
10
-117.35000000000001
20
-0.50000000000000711
10
-118.35000000000002
20
-0.50000000000000711
10
-118.35000000000002
20
-1.500000000000008
10
-103.65000000000001
20
-1.500000000000008
0
LWPOLYLINE
5
119
100
AcDbEntity
8
0
100
AcDbPolyline
90
8
70
1
43
0.0
10
-47.900000000000006
20
29.499999999999993
10
-48.900000000000006
20
29.499999999999993
10
-48.900000000000006
20
54.499999999999993
10
-61.600000000000001
20
54.499999999999993
10
-61.600000000000001
20
29.499999999999993
10
-62.600000000000016
20
29.499999999999993
10
-62.600000000000016
20
28.499999999999993
10
-47.900000000000006
20
28.499999999999993
0
LWPOLYLINE
5
120
100
AcDbEntity
8
0
100
AcDbPolyline
90
8
70
1
43
0.0
10
-92.5
20
29.499999999999993
10
-93.500000000000014
20
29.499999999999993
10
-93.500000000000014
20
54.499999999999993
10
-106.20000000000002
20
54.499999999999993
10
-106.20000000000002
20
29.499999999999993
10
-107.20000000000002
20
29.499999999999993
10
-107.20000000000002
20
28.499999999999993
10
-92.5
20
28.499999999999993
0
LWPOLYLINE
5
121
100
AcDbEntity
8
0
100
AcDbPolyline
90
8
70
1
43
0.0
10
-3.3000000000000007
20
29.499999999999993
10
-4.3000000000000149
20
29.499999999999993
10
-4.3000000000000149
20
54.499999999999993
10
-17
20
54.499999999999993
10
-17
20
29.499999999999993
10
-18.000000000000014
20
29.499999999999993
10
-18.000000000000014
20
28.499999999999993
10
-3.3000000000000007
20
28.499999999999993
0
LWPOLYLINE
5
122
100
AcDbEntity
8
0
100
AcDbPolyline
90
8
70
1
43
0.0
10
74.75
20
-0.50000000000000711
10
73.749999999999986
20
-0.50000000000000711
10
73.749999999999986
20
24.499999999999993
10
61.049999999999997
20
24.499999999999993
10
61.049999999999997
20
-0.50000000000000711
10
60.049999999999983
20
-0.50000000000000711
10
60.049999999999983
20
-1.500000000000008
10
74.75
20
-1.500000000000008
0
LWPOLYLINE
5
123
100
AcDbEntity
8
0
100
AcDbPolyline
90
8
70
1
43
0.0
10
18.999999999999986
20
29.499999999999993
10
17.999999999999989
20
29.499999999999993
10
17.999999999999989
20
54.499999999999993
10
5.2999999999999936
20
54.499999999999993
10
5.2999999999999936
20
29.499999999999993
10
4.2999999999999794
20
29.499999999999993
10
4.2999999999999794
20
28.499999999999993
10
18.999999999999986
20
28.499999999999993
0
LWPOLYLINE
5
124
100
AcDbEntity
8
0
100
AcDbPolyline
90
8
70
1
43
0.0
10
105.64999999999999
20
-0.50000000000000711
10
104.64999999999998
20
-0.50000000000000711
10
104.64999999999998
20
-1.500000000000008
10
119.34999999999999
20
-1.500000000000008
10
119.34999999999999
20
-0.50000000000000711
10
118.34999999999999
20
-0.50000000000000711
10
118.34999999999999
20
24.499999999999993
10
105.64999999999999
20
24.499999999999993
0
LWPOLYLINE
5
125
100
AcDbEntity
8
0
100
AcDbPolyline
90
8
70
1
43
0.0
10
-5.8500000000000085
20
-0.50000000000000711
10
-6.8500000000000227
20
-0.50000000000000711
10
-6.8500000000000227
20
-1.500000000000008
10
7.8499999999999837
20
-1.500000000000008
10
7.8499999999999837
20
-0.50000000000000711
10
6.8499999999999872
20
-0.50000000000000711
10
6.8499999999999872
20
24.499999999999993
10
-5.8500000000000085
20
24.499999999999993
0
LWPOLYLINE
5
126
100
AcDbEntity
8
0
100
AcDbPolyline
90
8
70
1
43
0.0
10
116.8
20
29.499999999999993
10
115.79999999999998
20
29.499999999999993
10
115.79999999999998
20
28.499999999999993
10
130.5
20
28.499999999999993
10
130.5
20
29.499999999999993
10
129.5
20
29.499999999999993
10
129.5
20
54.499999999999993
10
116.8
20
54.499999999999993
0
LWPOLYLINE
5
127
100
AcDbEntity
8
0
100
AcDbPolyline
90
8
70
1
43
0.0
10
27.599999999999998
20
29.499999999999993
10
26.599999999999984
20
29.499999999999993
10
26.599999999999984
20
28.499999999999993
10
41.29999999999999
20
28.499999999999993
10
41.29999999999999
20
29.499999999999993
10
40.299999999999997
20
29.499999999999993
10
40.299999999999997
20
54.499999999999993
10
27.599999999999998
20
54.499999999999993
0
LWPOLYLINE
5
128
100
AcDbEntity
8
0
100
AcDbPolyline
90
8
70
1
43
0.0
10
72.200000000000003
20
29.499999999999993
10
71.199999999999989
20
29.499999999999993
10
71.199999999999989
20
28.499999999999993
10
85.900000000000006
20
28.499999999999993
10
85.900000000000006
20
29.499999999999993
10
84.899999999999977
20
29.499999999999993
10
84.899999999999977
20
54.499999999999993
10
72.200000000000003
20
54.499999999999993
0
LWPOLYLINE
5
129
100
AcDbEntity
8
0
100
AcDbPolyline
90
8
70
1
43
0.0
10
-50.45000000000001
20
-0.50000000000000711
10
-51.450000000000024
20
-0.50000000000000711
10
-51.450000000000024
20
-1.500000000000008
10
-36.750000000000014
20
-1.500000000000008
10
-36.750000000000014
20
-0.50000000000000711
10
-37.750000000000014
20
-0.50000000000000711
10
-37.750000000000014
20
24.499999999999993
10
-50.45000000000001
20
24.499999999999993
0
LWPOLYLINE
5
130
100
AcDbEntity
8
0
100
AcDbPolyline
90
8
70
1
43
0.0
10
-95.050000000000011
20
-0.50000000000000711
10
-96.050000000000026
20
-0.50000000000000711
10
-96.050000000000026
20
-1.500000000000008
10
-81.350000000000023
20
-1.500000000000008
10
-81.350000000000023
20
-0.50000000000000711
10
-82.350000000000009
20
-0.50000000000000711
10
-82.350000000000009
20
24.499999999999993
10
-95.050000000000011
20
24.499999999999993
0
LWPOLYLINE
5
131
100
AcDbEntity
8
0
100
AcDbPolyline
90
8
70
1
43
0.0
10
38.749999999999993
20
-0.50000000000000711
10
37.749999999999979
20
-0.50000000000000711
10
37.749999999999979
20
-1.500000000000008
10
52.449999999999982
20
-1.500000000000008
10
52.449999999999982
20
-0.50000000000000711
10
51.449999999999989
20
-0.50000000000000711
10
51.449999999999989
20
24.499999999999993
10
38.749999999999993
20
24.499999999999993
0
LWPOLYLINE
5
132
100
AcDbEntity
8
0
100
AcDbPolyline
90
8
70
1
43
0.0
10
94.5
20
29.499999999999993
10
93.499999999999972
20
29.499999999999993
10
93.499999999999972
20
28.499999999999993
10
108.19999999999999
20
28.499999999999993
10
108.19999999999999
20
29.499999999999993
10
107.19999999999999
20
29.499999999999993
10
107.19999999999999
20
54.499999999999993
10
94.5
20
54.499999999999993
0
LWPOLYLINE
5
133
100
AcDbEntity
8
0
100
AcDbPolyline
90
8
70
1
43
0.0
10
-83.900000000000006
20
29.499999999999993
10
-84.90000000000002
20
29.499999999999993
10
-84.90000000000002
20
28.499999999999993
10
-70.200000000000017
20
28.499999999999993
10
-70.200000000000017
20
29.499999999999993
10
-71.200000000000017
20
29.499999999999993
10
-71.200000000000017
20
54.499999999999993
10
-83.900000000000006
20
54.499999999999993
0
LWPOLYLINE
5
134
100
AcDbEntity
8
0
100
AcDbPolyline
90
8
70
1
43
0.0
10
-139.5
20
59.499999999999993
42
-0.41421356237309448
10
-134.5
20
64.5
10
134.5
20
64.499999999999986
42
-0.41421356237309448
10
139.5
20
59.499999999999993
10
139.5
20
-64.5
42
-0.41421356237309448
10
134.5
20
-69.5
10
-134.5
20
-69.499999999999986
42
-0.41421356237309448
10
-139.5
20
-64.5
0
CIRCLE
5
135
100
AcDbEntity
8
0
100
AcDbCircle
10
132.99921431581495
20
-63.031454803562113
30
0
40
1.625
0
CIRCLE
5
136
100
AcDbEntity
8
0
100
AcDbCircle
10
-133
20
-63
30
0
40
1.625
0
CIRCLE
5
137
100
AcDbEntity
8
0
100
AcDbCircle
10
-133
20
58.000000000000014
30
0
40
1.625
0
CIRCLE
5
138
100
AcDbEntity
8
0
100
AcDbCircle
10
133
20
58.000000000000007
30
0
40
1.625
0
LWPOLYLINE
5
139
100
AcDbEntity
8
0
100
AcDbPolyline
90
4
70
1
43
0.0
10
104.64999999999998
20
-1.500000000000008
10
119.34999999999999
20
-1.500000000000008
10
119.34999999999999
20
-0.50000000000000711
10
104.64999999999998
20
-0.50000000000000711
0
LWPOLYLINE
5
140
100
AcDbEntity
8
0
100
AcDbPolyline
90
4
70
1
43
0.0
10
60.049999999999983
20
-1.500000000000008
10
74.75
20
-1.500000000000008
10
74.75
20
-0.50000000000000711
10
60.049999999999983
20
-0.50000000000000711
0
LWPOLYLINE
5
141
100
AcDbEntity
8
0
100
AcDbPolyline
90
4
70
1
43
0.0
10
37.749999999999979
20
-1.500000000000008
10
52.449999999999982
20
-1.500000000000008
10
52.449999999999982
20
-0.50000000000000711
10
37.749999999999979
20
-0.50000000000000711
0
LWPOLYLINE
5
142
100
AcDbEntity
8
0
100
AcDbPolyline
90
4
70
1
43
0.0
10
-6.8500000000000227
20
-1.500000000000008
10
7.8499999999999837
20
-1.500000000000008
10
7.8499999999999837
20
-0.50000000000000711
10
-6.8500000000000227
20
-0.50000000000000711
0
LWPOLYLINE
5
143
100
AcDbEntity
8
0
100
AcDbPolyline
90
4
70
1
43
0.0
10
-29.15000000000002
20
-1.500000000000008
10
-14.450000000000003
20
-1.500000000000008
10
-14.450000000000003
20
-0.50000000000000711
10
-29.15000000000002
20
-0.50000000000000711
0
LWPOLYLINE
5
144
100
AcDbEntity
8
0
100
AcDbPolyline
90
4
70
1
43
0.0
10
-51.450000000000024
20
-1.500000000000008
10
-36.750000000000014
20
-1.500000000000008
10
-36.750000000000014
20
-0.50000000000000711
10
-51.450000000000024
20
-0.50000000000000711
0
LWPOLYLINE
5
145
100
AcDbEntity
8
0
100
AcDbPolyline
90
4
70
1
43
0.0
10
-96.050000000000026
20
-1.500000000000008
10
-81.350000000000023
20
-1.500000000000008
10
-81.350000000000023
20
-0.50000000000000711
10
-96.050000000000026
20
-0.50000000000000711
0
LWPOLYLINE
5
146
100
AcDbEntity
8
0
100
AcDbPolyline
90
4
70
1
43
0.0
10
-118.35000000000002
20
-1.500000000000008
10
-103.65000000000001
20
-1.500000000000008
10
-103.65000000000001
20
-0.50000000000000711
10
-118.35000000000002
20
-0.50000000000000711
0
LWPOLYLINE
5
147
100
AcDbEntity
8
0
100
AcDbPolyline
90
4
70
1
43
0.0
10
-129.50000000000003
20
28.499999999999993
10
-114.80000000000001
20
28.499999999999993
10
-114.80000000000001
20
29.499999999999993
10
-129.50000000000003
20
29.499999999999993
0
LWPOLYLINE
5
148
100
AcDbEntity
8
0
100
AcDbPolyline
90
4
70
1
43
0.0
10
-107.20000000000002
20
28.499999999999993
10
-92.5
20
28.499999999999993
10
-92.5
20
29.499999999999993
10
-107.20000000000002
20
29.499999999999993
0
LWPOLYLINE
5
149
100
AcDbEntity
8
0
100
AcDbPolyline
90
4
70
1
43
0.0
10
-84.90000000000002
20
28.499999999999993
10
-70.200000000000017
20
28.499999999999993
10
-70.200000000000017
20
29.499999999999993
10
-84.90000000000002
20
29.499999999999993
0
LWPOLYLINE
5
150
100
AcDbEntity
8
0
100
AcDbPolyline
90
4
70
1
43
0.0
10
-62.600000000000016
20
28.499999999999993
10
-47.900000000000006
20
28.499999999999993
10
-47.900000000000006
20
29.499999999999993
10
-62.600000000000016
20
29.499999999999993
0
LWPOLYLINE
5
151
100
AcDbEntity
8
0
100
AcDbPolyline
90
4
70
1
43
0.0
10
-40.300000000000018
20
28.499999999999993
10
-25.600000000000016
20
28.499999999999993
10
-25.600000000000016
20
29.499999999999993
10
-40.300000000000018
20
29.499999999999993
0
LWPOLYLINE
5
152
100
AcDbEntity
8
0
100
AcDbPolyline
90
4
70
1
43
0.0
10
-18.000000000000014
20
28.499999999999993
10
-3.3000000000000007
20
28.499999999999993
10
-3.3000000000000007
20
29.499999999999993
10
-18.000000000000014
20
29.499999999999993
0
LWPOLYLINE
5
153
100
AcDbEntity
8
0
100
AcDbPolyline
90
4
70
1
43
0.0
10
4.2999999999999794
20
28.499999999999993
10
18.999999999999986
20
28.499999999999993
10
18.999999999999986
20
29.499999999999993
10
4.2999999999999794
20
29.499999999999993
0
LWPOLYLINE
5
154
100
AcDbEntity
8
0
100
AcDbPolyline
90
4
70
1
43
0.0
10
26.599999999999984
20
28.499999999999993
10
41.29999999999999
20
28.499999999999993
10
41.29999999999999
20
29.499999999999993
10
26.599999999999984
20
29.499999999999993
0
LWPOLYLINE
5
155
100
AcDbEntity
8
0
100
AcDbPolyline
90
4
70
1
43
0.0
10
48.899999999999977
20
28.499999999999993
10
63.599999999999987
20
28.499999999999993
10
63.599999999999987
20
29.499999999999993
10
48.899999999999977
20
29.499999999999993
0
LWPOLYLINE
5
156
100
AcDbEntity
8
0
100
AcDbPolyline
90
4
70
1
43
0.0
10
71.199999999999989
20
28.499999999999993
10
85.900000000000006
20
28.499999999999993
10
85.900000000000006
20
29.499999999999993
10
71.199999999999989
20
29.499999999999993
0
LWPOLYLINE
5
157
100
AcDbEntity
8
0
100
AcDbPolyline
90
4
70
1
43
0.0
10
93.499999999999972
20
28.499999999999993
10
108.19999999999999
20
28.499999999999993
10
108.19999999999999
20
29.499999999999993
10
93.499999999999972
20
29.499999999999993
0
LWPOLYLINE
5
158
100
AcDbEntity
8
0
100
AcDbPolyline
90
4
70
1
43
0.0
10
115.79999999999998
20
28.499999999999993
10
130.5
20
28.499999999999993
10
130.5
20
29.499999999999993
10
115.79999999999998
20
29.499999999999993
0
LWPOLYLINE
5
159
100
AcDbEntity
8
0
100
AcDbPolyline
90
4
70
1
43
0.0
10
-18.749999999999964
20
-54.500000000000014
10
56.250000000000036
20
-54.500000000000014
10
56.250000000000036
20
-7.5000000000000089
10
-18.749999999999964
20
-7.5000000000000089
0
LINE
5
160
100
AcDbEntity
8
0
100
AcDbLine
10
139.5
20
-64.5
30
0
11
139.5
21
59.499999999999993
31
0
0
LINE
5
161
100
AcDbEntity
8
0
100
AcDbLine
10
134.5
20
64.499999999999986
30
0
11
-134.5
21
64.5
31
0
0
LINE
5
162
100
AcDbEntity
8
0
100
AcDbLine
10
-139.5
20
59.499999999999993
30
0
11
-139.5
21
-64.5
31
0
0
LWPOLYLINE
5
163
100
AcDbEntity
8
0
100
AcDbPolyline
90
4
70
1
43
0.0
10
105.64999999999999
20
-0.50000000000000711
10
118.34999999999999
20
-0.50000000000000711
10
118.34999999999999
20
24.499999999999993
10
105.64999999999999
20
24.499999999999993
0
LWPOLYLINE
5
164
100
AcDbEntity
8
0
100
AcDbPolyline
90
4
70
1
43
0.0
10
116.8
20
29.499999999999993
10
129.5
20
29.499999999999993
10
129.5
20
54.499999999999993
10
116.8
20
54.499999999999993
0
LWPOLYLINE
5
165
100
AcDbEntity
8
0
100
AcDbPolyline
90
4
70
1
43
0.0
10
94.5
20
29.499999999999993
10
107.19999999999999
20
29.499999999999993
10
107.19999999999999
20
54.499999999999993
10
94.5
20
54.499999999999993
0
LWPOLYLINE
5
166
100
AcDbEntity
8
0
100
AcDbPolyline
90
4
70
1
43
0.0
10
72.200000000000003
20
29.499999999999993
10
84.899999999999977
20
29.499999999999993
10
84.899999999999977
20
54.499999999999993
10
72.200000000000003
20
54.499999999999993
0
LWPOLYLINE
5
167
100
AcDbEntity
8
0
100
AcDbPolyline
90
4
70
1
43
0.0
10
61.049999999999997
20
-0.50000000000000711
10
73.749999999999986
20
-0.50000000000000711
10
73.749999999999986
20
24.499999999999993
10
61.049999999999997
20
24.499999999999993
0
LWPOLYLINE
5
168
100
AcDbEntity
8
0
100
AcDbPolyline
90
4
70
1
43
0.0
10
49.899999999999991
20
29.499999999999993
10
62.599999999999987
20
29.499999999999993
10
62.599999999999987
20
54.499999999999993
10
49.899999999999991
20
54.499999999999993
0
LWPOLYLINE
5
169
100
AcDbEntity
8
0
100
AcDbPolyline
90
4
70
1
43
0.0
10
38.749999999999993
20
-0.50000000000000711
10
51.449999999999989
20
-0.50000000000000711
10
51.449999999999989
20
24.499999999999993
10
38.749999999999993
20
24.499999999999993
0
LWPOLYLINE
5
170
100
AcDbEntity
8
0
100
AcDbPolyline
90
4
70
1
43
0.0
10
27.599999999999998
20
29.499999999999993
10
40.299999999999997
20
29.499999999999993
10
40.299999999999997
20
54.499999999999993
10
27.599999999999998
20
54.499999999999993
0
LWPOLYLINE
5
171
100
AcDbEntity
8
0
100
AcDbPolyline
90
4
70
1
43
0.0
10
5.2999999999999936
20
29.499999999999993
10
17.999999999999989
20
29.499999999999993
10
17.999999999999989
20
54.499999999999993
10
5.2999999999999936
20
54.499999999999993
0
LWPOLYLINE
5
172
100
AcDbEntity
8
0
100
AcDbPolyline
90
4
70
1
43
0.0
10
-5.8500000000000085
20
-0.50000000000000711
10
6.8499999999999872
20
-0.50000000000000711
10
6.8499999999999872
20
24.499999999999993
10
-5.8500000000000085
20
24.499999999999993
0
LWPOLYLINE
5
173
100
AcDbEntity
8
0
100
AcDbPolyline
90
4
70
1
43
0.0
10
-17
20
29.499999999999993
10
-4.3000000000000149
20
29.499999999999993
10
-4.3000000000000149
20
54.499999999999993
10
-17
20
54.499999999999993
0
LWPOLYLINE
5
174
100
AcDbEntity
8
0
100
AcDbPolyline
90
4
70
1
43
0.0
10
-28.150000000000006
20
-0.50000000000000711
10
-15.450000000000017
20
-0.50000000000000711
10
-15.450000000000017
20
24.499999999999993
10
-28.150000000000006
20
24.499999999999993
0
LWPOLYLINE
5
175
100
AcDbEntity
8
0
100
AcDbPolyline
90
4
70
1
43
0.0
10
-39.300000000000004
20
29.499999999999993
10
-26.600000000000009
20
29.499999999999993
10
-26.600000000000009
20
54.499999999999993
10
-39.300000000000004
20
54.499999999999993
0
LWPOLYLINE
5
176
100
AcDbEntity
8
0
100
AcDbPolyline
90
4
70
1
43
0.0
10
-50.45000000000001
20
-0.50000000000000711
10
-37.750000000000014
20
-0.50000000000000711
10
-37.750000000000014
20
24.499999999999993
10
-50.45000000000001
20
24.499999999999993
0
LWPOLYLINE
5
177
100
AcDbEntity
8
0
100
AcDbPolyline
90
4
70
1
43
0.0
10
-61.600000000000001
20
29.499999999999993
10
-48.900000000000006
20
29.499999999999993
10
-48.900000000000006
20
54.499999999999993
10
-61.600000000000001
20
54.499999999999993
0
LWPOLYLINE
5
178
100
AcDbEntity
8
0
100
AcDbPolyline
90
4
70
1
43
0.0
10
-83.900000000000006
20
29.499999999999993
10
-71.200000000000017
20
29.499999999999993
10
-71.200000000000017
20
54.499999999999993
10
-83.900000000000006
20
54.499999999999993
0
LWPOLYLINE
5
179
100
AcDbEntity
8
0
100
AcDbPolyline
90
4
70
1
43
0.0
10
-95.050000000000011
20
-0.50000000000000711
10
-82.350000000000009
20
-0.50000000000000711
10
-82.350000000000009
20
24.499999999999993
10
-95.050000000000011
20
24.499999999999993
0
LWPOLYLINE
5
180
100
AcDbEntity
8
0
100
AcDbPolyline
90
4
70
1
43
0.0
10
-106.20000000000002
20
29.499999999999993
10
-93.500000000000014
20
29.499999999999993
10
-93.500000000000014
20
54.499999999999993
10
-106.20000000000002
20
54.499999999999993
0
LWPOLYLINE
5
181
100
AcDbEntity
8
0
100
AcDbPolyline
90
4
70
1
43
0.0
10
-117.35000000000001
20
-0.50000000000000711
10
-104.65000000000002
20
-0.50000000000000711
10
-104.65000000000002
20
24.499999999999993
10
-117.35000000000001
20
24.499999999999993
0
LWPOLYLINE
5
182
100
AcDbEntity
8
0
100
AcDbPolyline
90
4
70
1
43
0.0
10
-128.5
20
29.499999999999993
10
-115.80000000000001
20
29.499999999999993
10
-115.80000000000001
20
54.499999999999993
10
-128.5
20
54.499999999999993
0
LWPOLYLINE
5
183
100
AcDbEntity
8
0
100
AcDbPolyline
90
4
70
1
43
0.0
10
125.00000000000003
20
-20.283882181415024
42
-0.69548237581133232
10
110.00000000000003
20
-20.283882181415031
10
110.00000000000003
20
-14.716117818584989
42
-0.69548237581132999
10
125.00000000000003
20
-14.716117818584987
0
LWPOLYLINE
5
184
100
AcDbEntity
8
0
100
AcDbPolyline
90
4
70
1
43
0.0
10
102.50000000000003
20
-20.283882181415024
42
-0.69548237581133232
10
87.500000000000028
20
-20.283882181415031
10
87.500000000000028
20
-14.716117818584987
42
-0.69548237581132999
10
102.50000000000003
20
-14.716117818584987
0
LWPOLYLINE
5
185
100
AcDbEntity
8
0
100
AcDbPolyline
90
4
70
1
43
0.0
10
87.500000000000028
20
-44.716117818584991
42
-0.69548237581133043
10
102.50000000000003
20
-44.716117818584991
10
102.50000000000003
20
-50.283882181415017
42
-0.69548237581133199
10
87.500000000000028
20
-50.283882181415024
0
LWPOLYLINE
5
186
100
AcDbEntity
8
0
100
AcDbPolyline
90
4
70
1
43
0.0
10
65.000000000000028
20
-44.716117818584991
42
-0.69548237581133043
10
80.000000000000028
20
-44.716117818584991
10
80.000000000000028
20
-50.283882181415017
42
-0.69548237581133199
10
65.000000000000028
20
-50.283882181415024
0
LWPOLYLINE
5
187
100
AcDbEntity
8
0
100
AcDbPolyline
90
4
70
1
43
0.0
10
-27.499999999999961
20
-25.283882181415027
42
-0.69548237581133232
10
-42.499999999999964
20
-25.283882181415031
10
-42.499999999999972
20
-19.716117818584987
42
-0.69548237581132999
10
-27.499999999999964
20
-19.716117818584987
0
LWPOLYLINE
5
188
100
AcDbEntity
8
0
100
AcDbPolyline
90
4
70
1
43
0.0
10
-54.999999999999964
20
-19.716117818584987
10
-54.999999999999957
20
-25.283882181415027
42
-0.69548237581133232
10
-69.999999999999972
20
-25.283882181415031
10
-69.999999999999972
20
-19.716117818584987
42
-0.69548237581132999
0
LWPOLYLINE
5
189
100
AcDbEntity
8
0
100
AcDbPolyline
90
4
70
1
43
0.0
10
-109.99999999999997
20
-25.283882181415027
42
-0.69548237581133232
10
-124.99999999999997
20
-25.283882181415031
10
-124.99999999999997
20
-19.716117818584987
42
-0.69548237581132999
10
-109.99999999999997
20
-19.716117818584987
0
LWPOLYLINE
5
190
100
AcDbEntity
8
0
100
AcDbPolyline
90
4
70
1
43
0.0
10
-82.499999999999972
20
-19.716117818584987
10
-82.499999999999972
20
-25.283882181415027
42
-0.69548237581133232
10
-97.499999999999972
20
-25.283882181415031
10
-97.499999999999972
20
-19.716117818584987
42
-0.69548237581132999
0
CIRCLE
5
191
100
AcDbEntity
8
0
100
AcDbCircle
10
-117.5
20
-47.500000000000028
30
0
40
3.7500000000000009
0
CIRCLE
5
192
100
AcDbEntity
8
0
100
AcDbCircle
10
-109.7
20
-47.500000000000007
30
0
40
1.5000000000000062
0
CIRCLE
5
193
100
AcDbEntity
8
0
100
AcDbCircle
10
-117.5
20
-47.500000000000028
30
0
40
8.499999999999984
0
CIRCLE
5
194
100
AcDbEntity
8
0
100
AcDbCircle
10
-90
20
-47.500000000000028
30
0
40
3.7500000000000009
0
CIRCLE
5
195
100
AcDbEntity
8
0
100
AcDbCircle
10
-90
20
-47.500000000000028
30
0
40
8.499999999999984
0
CIRCLE
5
196
100
AcDbEntity
8
0
100
AcDbCircle
10
-82.200000000000003
20
-47.500000000000007
30
0
40
1.5000000000000062
0
CIRCLE
5
197
100
AcDbEntity
8
0
100
AcDbCircle
10
-35
20
-47.500000000000028
30
0
40
8.499999999999984
0
CIRCLE
5
198
100
AcDbEntity
8
0
100
AcDbCircle
10
-27.200000000000006
20
-47.500000000000007
30
0
40
1.5000000000000062
0
CIRCLE
5
199
100
AcDbEntity
8
0
100
AcDbCircle
10
-62.5
20
-47.500000000000028
30
0
40
8.499999999999984
0
CIRCLE
5
200
100
AcDbEntity
8
0
100
AcDbCircle
10
-35
20
-47.500000000000028
30
0
40
3.7500000000000009
0
CIRCLE
5
201
100
AcDbEntity
8
0
100
AcDbCircle
10
-54.700000000000003
20
-47.500000000000007
30
0
40
1.5000000000000062
0
CIRCLE
5
202
100
AcDbEntity
8
0
100
AcDbCircle
10
-62.5
20
-47.500000000000028
30
0
40
3.7500000000000009
0
CIRCLE
5
203
100
AcDbEntity
8
0
100
AcDbCircle
10
117.5
20
-47.500000000000028
30
0
40
3.7500000000000009
0
CIRCLE
5
204
100
AcDbEntity
8
0
100
AcDbCircle
10
125.3
20
-47.500000000000007
30
0
40
1.5000000000000062
0
CIRCLE
5
205
100
AcDbEntity
8
0
100
AcDbCircle
10
117.5
20
-47.500000000000028
30
0
40
8.499999999999984
0
LINE
5
206
100
AcDbEntity
8
0
100
AcDbLine
10
134.5
20
-69.5
30
0
11
-134.5
21
-69.499999999999986
31
0
0
ARC
5
207
100
AcDbEntity
8
0
100
AcDbCircle
10
134.5
20
-64.500000000000014
30
0
40
4.9999999999999822
100
AcDbArc
50
-90
51
0
0
ARC
5
208
100
AcDbEntity
8
0
100
AcDbCircle
10
134.5
20
59.500000000000014
30
0
40
4.9999999999999645
100
AcDbArc
50
0
51
90
0
ARC
5
209
100
AcDbEntity
8
0
100
AcDbCircle
10
-134.5
20
59.500000000000021
30
0
40
4.9999999999999822
100
AcDbArc
50
90
51
180
0
ARC
5
210
100
AcDbEntity
8
0
100
AcDbCircle
10
-134.5
20
-64.500000000000014
30
0
40
4.9999999999999645
100
AcDbArc
50
180
51
270
0
CIRCLE
5
211
100
AcDbEntity
8
0
100
AcDbCircle
10
132.99921431581495
20
-63.031454803562113
30
0
40
1.6249999999999984
0
CIRCLE
5
212
100
AcDbEntity
8
0
100
AcDbCircle
10
133
20
58.000000000000007
30
0
40
1.6249999999999973
0
CIRCLE
5
213
100
AcDbEntity
8
0
100
AcDbCircle
10
-133
20
58.000000000000014
30
0
40
1.6250000000000033
0
CIRCLE
5
214
100
AcDbEntity
8
0
100
AcDbCircle
10
-133
20
-63
30
0
40
1.6250000000000064
0
ENDSEC
0
SECTION
2
OBJECTS
0
DICTIONARY
5
C
100
AcDbDictionary
3
ACAD_GROUP
350
D
3
ACAD_MLINESTYLE
350
17
0
DICTIONARY
5
D
100
AcDbDictionary
0
DICTIONARY
5
1A
330
C
100
AcDbDictionary
0
DICTIONARY
5
17
100
AcDbDictionary
0
ENDSEC
0
EOF
