0
SECTION
2
HEADER
9
$INSUNITS
70
4
9
$ACADVER
1
AC1014
9
$HANDSEED
5
FFFF
0
ENDSEC
0
SECTION
2
TABLES
0
TABLE
2
VPORT
5
8
100
AcDbSymbolTable
0
ENDTAB
0
TABLE
2
LTYPE
5
5
100
AcDbSymbolTable
0
LTYPE
5
14
100
AcDbSymbolTableRecord
100
AcDbLinetypeTableRecord
2
BYBLOCK
70
0
0
LTYPE
5
15
100
AcDbSymbolTableRecord
100
AcDbLinetypeTableRecord
2
BYLAYER
70
0
0
ENDTAB
0
TABLE
2
LAYER
5
2
100
AcDbSymbolTable
70
2
0
LAYER
5
50
100
AcDbSymbolTableRecord
100
AcDbLayerTableRecord
2
0
70
0
6
CONTINUOUS
0
ENDTAB
0
TABLE
2
STYLE
5
3
100
AcDbSymbolTable
70
1
0
STYLE
5
11
100
AcDbSymbolTableRecord
100
AcDbTextStyleTableRecord
2
STANDARD
70
0
0
ENDTAB
0
TABLE
2
VIEW
5
6
100
AcDbSymbolTable
70
0
0
ENDTAB
0
TABLE
2
UCS
5
7
100
AcDbSymbolTable
70
0
0
ENDTAB
0
TABLE
2
APPID
5
9
100
AcDbSymbolTable
70
2
0
APPID
5
12
100
AcDbSymbolTableRecord
100
AcDbRegAppTableRecord
2
ACAD
70
0
0
ENDTAB
0
TABLE
2
DIMSTYLE
5
A
100
AcDbSymbolTable
70
1
0
ENDTAB
0
TABLE
2
BLOCK_RECORD
5
1
100
AcDbSymbolTable
70
1
0
BLOCK_RECORD
5
1F
100
AcDbSymbolTableRecord
100
AcDbBlockTableRecord
2
*MODEL_SPACE
0
BLOCK_RECORD
5
1B
100
AcDbSymbolTableRecord
100
AcDbBlockTableRecord
2
*PAPER_SPACE
0
ENDTAB
0
ENDSEC
0
SECTION
2
BLOCKS
0
BLOCK
5
20
100
AcDbEntity
100
AcDbBlockBegin
2
*MODEL_SPACE
0
ENDBLK
5
21
100
AcDbEntity
100
AcDbBlockEnd
0
BLOCK
5
1C
100
AcDbEntity
100
AcDbBlockBegin
2
*PAPER_SPACE
0
ENDBLK
5
1D
100
AcDbEntity
100
AcDbBlockEnd
0
ENDSEC
0
SECTION
2
ENTITIES
0
CIRCLE
5
100
100
AcDbEntity
8
0
100
AcDbCircle
10
0
20
58.000000000000007
30
0
40
1.625
0
CIRCLE
5
101
100
AcDbEntity
8
0
100
AcDbCircle
10
-133
20
58.000000000000014
30
0
40
1.625
0
CIRCLE
5
102
100
AcDbEntity
8
0
100
AcDbCircle
10
-133
20
-63
30
0
40
1.625
0
CIRCLE
5
103
100
AcDbEntity
8
0
100
AcDbCircle
10
0
20
-63.000000000000007
30
0
40
1.625
0
CIRCLE
5
104
100
AcDbEntity
8
0
100
AcDbCircle
10
133
20
-63.000000000000007
30
0
40
1.625
0
CIRCLE
5
105
100
AcDbEntity
8
0
100
AcDbCircle
10
133
20
58.000000000000007
30
0
40
1.625
0
LWPOLYLINE
5
106
100
AcDbEntity
8
0
100
AcDbPolyline
90
8
70
1
43
0.0
10
-139.5
20
59.499999999999993
42
-0.41421356237309448
10
-134.5
20
64.5
10
134.5
20
64.499999999999986
42
-0.41421356237309448
10
139.5
20
59.499999999999993
10
139.5
20
-64.5
42
-0.41421356237309448
10
134.5
20
-69.5
10
-134.5
20
-69.499999999999986
42
-0.41421356237309448
10
-139.5
20
-64.5
0
LINE
5
107
100
AcDbEntity
8
0
100
AcDbLine
10
139.5
20
-64.5
30
0
11
139.5
21
59.499999999999993
31
0
0
LINE
5
108
100
AcDbEntity
8
0
100
AcDbLine
10
134.5
20
64.499999999999986
30
0
11
-134.5
21
64.5
31
0
0
LINE
5
109
100
AcDbEntity
8
0
100
AcDbLine
10
-139.5
20
59.499999999999993
30
0
11
-139.5
21
-64.5
31
0
0
LINE
5
110
100
AcDbEntity
8
0
100
AcDbLine
10
-134.5
20
-69.499999999999986
30
0
11
134.5
21
-69.5
31
0
0
ARC
5
111
100
AcDbEntity
8
0
100
AcDbCircle
10
134.5
20
-64.500000000000014
30
0
40
4.9999999999999822
100
AcDbArc
50
-90
51
0
0
ARC
5
112
100
AcDbEntity
8
0
100
AcDbCircle
10
134.5
20
59.500000000000014
30
0
40
4.9999999999999645
100
AcDbArc
50
0
51
90
0
ARC
5
113
100
AcDbEntity
8
0
100
AcDbCircle
10
-134.5
20
59.500000000000021
30
0
40
4.9999999999999822
100
AcDbArc
50
90
51
180
0
ARC
5
114
100
AcDbEntity
8
0
100
AcDbCircle
10
-134.5
20
-64.500000000000014
30
0
40
4.9999999999999645
100
AcDbArc
50
180
51
270
0
CIRCLE
5
115
100
AcDbEntity
8
0
100
AcDbCircle
10
133
20
-63.000000000000007
30
0
40
1.6250000000000018
0
CIRCLE
5
116
100
AcDbEntity
8
0
100
AcDbCircle
10
133
20
-63.000000000000007
30
0
40
3.0000000000000049
0
CIRCLE
5
117
100
AcDbEntity
8
0
100
AcDbCircle
10
0
20
-63.000000000000007
30
0
40
1.625
0
CIRCLE
5
118
100
AcDbEntity
8
0
100
AcDbCircle
10
0
20
-63.000000000000007
30
0
40
3.0000000000000004
0
CIRCLE
5
119
100
AcDbEntity
8
0
100
AcDbCircle
10
-133
20
-63
30
0
40
1.6250000000000033
0
CIRCLE
5
120
100
AcDbEntity
8
0
100
AcDbCircle
10
-133
20
-63
30
0
40
2.9999999999999938
0
CIRCLE
5
121
100
AcDbEntity
8
0
100
AcDbCircle
10
-133
20
58.000000000000014
30
0
40
1.6249999999999953
0
CIRCLE
5
122
100
AcDbEntity
8
0
100
AcDbCircle
10
-133
20
58.000000000000014
30
0
40
2.9999999999999978
0
CIRCLE
5
123
100
AcDbEntity
8
0
100
AcDbCircle
10
0
20
58.000000000000007
30
0
40
1.6249999999999987
0
CIRCLE
5
124
100
AcDbEntity
8
0
100
AcDbCircle
10
0
20
58.000000000000007
30
0
40
3.0000000000000022
0
CIRCLE
5
125
100
AcDbEntity
8
0
100
AcDbCircle
10
133
20
58.000000000000007
30
0
40
1.6250000000000067
0
CIRCLE
5
126
100
AcDbEntity
8
0
100
AcDbCircle
10
133
20
58.000000000000007
30
0
40
2.9999999999999956
0
ENDSEC
0
SECTION
2
OBJECTS
0
DICTIONARY
5
C
100
AcDbDictionary
3
ACAD_GROUP
350
D
3
ACAD_MLINESTYLE
350
17
0
DICTIONARY
5
D
100
AcDbDictionary
0
DICTIONARY
5
1A
330
C
100
AcDbDictionary
0
DICTIONARY
5
17
100
AcDbDictionary
0
ENDSEC
0
EOF
